<svg width="41" height="40" viewBox="0 0 41 40" fill="none" xmlns="http://www.w3.org/2000/svg">
<rect x="1.5" y="1" width="38" height="38" rx="19" fill="#FCFCFC"/>
<path d="M21.7929 25.7929C21.4024 26.1834 21.4024 26.8166 21.7929 27.2071C22.1834 27.5976 22.8166 27.5976 23.2071 27.2071L29 21.4142C29.781 20.6332 29.781 19.3668 29 18.5858L23.2071 12.7929C22.8166 12.4024 22.1834 12.4024 21.7929 12.7929C21.4024 13.1834 21.4024 13.8166 21.7929 14.2071L26.5858 19H12.5C11.9477 19 11.5 19.4477 11.5 20C11.5 20.5523 11.9477 21 12.5 21H26.5858L21.7929 25.7929Z" fill="#111315"/>
<rect x="1.5" y="1" width="38" height="38" rx="19" stroke="#EFEFEF" stroke-width="2"/>
</svg>
