<svg width="36" height="36" viewBox="0 0 36 36" fill="none" xmlns="http://www.w3.org/2000/svg">
<rect width="36" height="36" rx="18" fill="#EFEFEF"/>
<path d="M13.5891 12.4107C13.2637 12.0853 12.736 12.0853 12.4106 12.4107C12.0851 12.7361 12.0851 13.2638 12.4106 13.5892L16.8213 18L12.4106 22.4107C12.0852 22.7361 12.0852 23.2638 12.4106 23.5892C12.736 23.9147 13.2637 23.9147 13.5891 23.5892L17.9998 19.1785L22.4106 23.5892C22.736 23.9147 23.2637 23.9147 23.5891 23.5892C23.9145 23.2638 23.9145 22.7361 23.5891 22.4107L19.1784 18L23.5891 13.5892C23.9146 13.2638 23.9146 12.7361 23.5891 12.4107C23.2637 12.0853 22.736 12.0853 22.4106 12.4107L17.9998 16.8215L13.5891 12.4107Z" fill="#33383F"/>
</svg>
