<svg width="6" height="9" viewBox="0 0 6 9" fill="none" xmlns="http://www.w3.org/2000/svg">
<path d="M5.41922 4.21473L2.18437 0.979886C2.11345 0.908378 2.02907 0.851619 1.9361 0.812886C1.84313 0.774153 1.74341 0.754211 1.64269 0.754211C1.54197 0.754211 1.44225 0.774153 1.34928 0.812886C1.25631 0.851619 1.17193 0.908378 1.10101 0.979886C0.958909 1.12283 0.87915 1.3162 0.87915 1.51776C0.87915 1.71931 0.958909 1.91268 1.10101 2.05563L3.8018 4.75642L1.10101 7.45721C0.958909 7.60015 0.87915 7.79352 0.87915 7.99508C0.87915 8.19664 0.958909 8.39 1.10101 8.53295C1.1723 8.60366 1.25684 8.6596 1.34979 8.69757C1.44275 8.73553 1.54228 8.75478 1.64269 8.7542C1.7431 8.75478 1.84263 8.73553 1.93559 8.69757C2.02854 8.6596 2.11309 8.60366 2.18437 8.53295L5.41922 5.2981C5.49073 5.22718 5.54749 5.14279 5.58622 5.04982C5.62495 4.95685 5.6449 4.85713 5.6449 4.75642C5.6449 4.6557 5.62495 4.55598 5.58622 4.46301C5.54749 4.37004 5.49073 4.28566 5.41922 4.21473Z" fill="black"/>
</svg>
